<?xml version="1.0" encoding="utf-8"?><!DOCTYPE svg PUBLIC "-//W3C//DTD SVG 1.1//EN" 	"http://www.w3.org/Graphics/SVG/1.1/DTD/svg11.dtd"><svg width="1087" height="489" viewbox="0 0 1087 489" xml:space="preserve" xmlns="http://www.w3.org/2000/svg" xmlns:xlink="http://www.w3.org/1999/xlink" Version="1.1" x="0px" y="0px"><g><g><g class="link" fill="#c0c0c0" opacity="0.3" id="link-0" style="opacity: 0.3;"><path d="M30,2.986499936241671e-14L30,379.46400000000006"></path><path d="M30,2.986499936241671e-14C100.7,2.986499936241671e-14 100.7,0 171.4,0L171.4,379.464C100.7,379.464 100.7,379.46400000000006 30,379.46400000000006Z"></path><path d="M171.4,0L171.4,379.464"></path><title>Tranco 1M → Loaded successfully
776.00</title></g><g class="link" fill="#ca9a9a" opacity="0.3" id="link-1" style="opacity: 0.3;"><path d="M201.4,127.62899999999999L201.4,379.464"></path><path d="M201.4,127.62899999999999C291.2,127.62899999999999 291.2,127.20099999999996 381,127.20099999999996L381,379.03599999999994C291.2,379.03599999999994 291.2,379.464 201.4,379.464Z"></path><path d="M381,127.20099999999996L381,379.03599999999994"></path><title>Loaded successfully → Registration form not found
515.00</title></g><g class="link" fill="#cfffff" opacity="0.3" id="link-2" style="opacity: 0.3;"><path d="M201.4,0L201.4,127.62899999999999"></path><path d="M201.4,0C291.1,0 291.1,0 380.8,0L380.8,127.62899999999999C291.1,127.62899999999999 291.1,127.62899999999999 201.4,127.62899999999999Z"></path><path d="M380.8,0L380.8,127.62899999999999"></path><title>Loaded successfully → Registration form found
261.00</title></g><g class="link" fill="#c8a192" opacity="0.3" id="link-3" style="opacity: 0.3;"><path d="M30,379.46400000000006L30,489.00000000000006"></path><path d="M30,379.46400000000006C205.5,379.46400000000006 205.5,379.464 381,379.464L381,489C205.5,489 205.5,489.00000000000006 30,489.00000000000006Z"></path><path d="M381,379.464L381,489"></path><title>Tranco 1M → Failed: timeout/bot detection/unsupported language
224.00</title></g><g class="link" fill="#d59d89" opacity="0.3" id="link-4" style="opacity: 0.3;"><path d="M410.8,78.72899999999998L410.8,127.62899999999999"></path><path d="M410.8,78.72899999999998C527,78.72899999999998 527,104 643.2,104L643.2,152.9C527,152.9 527,127.62899999999999 410.8,127.62899999999999Z"></path><path d="M643.2,104L643.2,152.9"></path><title>Registration form found → Registration submission failed
100.00</title></g><g class="link" fill="#ffa07d" opacity="0.3" id="link-5" style="opacity: 0.3;"><path d="M673.2,109.868L673.2,152.89999999999998"></path><path d="M673.2,109.868C785.9000000000001,109.868 785.9000000000001,117.11699237060544 898.6,117.11699237060544L898.6,160.14899237060544C785.9000000000001,160.14899237060544 785.9000000000001,152.89999999999998 673.2,152.89999999999998Z"></path><path d="M898.6,117.11699237060544L898.6,160.14899237060544"></path><title>Registration submission failed → Registration failed (estimate)
88.00</title></g><g class="link" fill="#c0c0c0" opacity="0.3" id="link-6" style="opacity: 0.3;"><path d="M410.8,38.141999999999996L410.8,78.72899999999998"></path><path d="M410.8,38.141999999999996C527.5,38.141999999999996 527.5,49.1607149629221 644.2,49.1607149629221L644.2,89.74771496292209C527.5,89.74771496292209 527.5,78.72899999999998 410.8,78.72899999999998Z"></path><path d="M644.2,49.1607149629221L644.2,89.74771496292209"></path><title>Registration form found → Registration state unknown
83.00</title></g><g class="link" fill="#b0ff78" opacity="0.3" id="link-7" style="opacity: 0.3;"><path d="M410.8,0L410.8,38.141999999999996"></path><path d="M410.8,0C527.5,0 527.5,0 644.2,0L644.2,38.141999999999996C527.5,38.141999999999996 527.5,38.141999999999996 410.8,38.141999999999996Z"></path><path d="M644.2,0L644.2,38.141999999999996"></path><title>Registration form found → Registration submission successful
78.00</title></g><g class="link" fill="#ffa07d" opacity="0.3" id="link-8" style="opacity: 0.3;"><path d="M674.2,53.0727149629221L674.2,89.74771496292209"></path><path d="M674.2,53.0727149629221C786.4000000000001,53.0727149629221 786.4000000000001,80.44199237060545 898.6,80.44199237060545L898.6,117.11699237060544C786.4000000000001,117.11699237060544 786.4000000000001,89.74771496292209 674.2,89.74771496292209Z"></path><path d="M898.6,80.44199237060545L898.6,117.11699237060544"></path><title>Registration state unknown → Registration failed (estimate)
75.00</title></g><g class="link" fill="#0eff00" opacity="0.3" id="link-9" style="opacity: 0.3;"><path d="M927.6,0L927.6,24.45"></path><path d="M927.6,0C992.3,0 992.3,0 1057,0L1057,24.45C992.3,24.45 992.3,24.45 927.6,24.45Z"></path><path d="M1057,0L1057,24.45"></path><title>Successful registration (estimate) → Received email
50.00</title></g><g class="link" fill="#7bff64" opacity="0.3" id="link-10" style="opacity: 0.3;"><path d="M674.2,0L674.2,19.070999999999998"></path><path d="M674.2,0C785.9000000000001,0 785.9000000000001,0 897.6,0L897.6,19.070999999999998C785.9000000000001,19.070999999999998 785.9000000000001,19.070999999999998 674.2,19.070999999999998Z"></path><path d="M897.6,0L897.6,19.070999999999998"></path><title>Registration submission successful → Successful registration (estimate)
39.00</title></g><g class="link" fill="#ffa07d" opacity="0.3" id="link-11" style="opacity: 0.3;"><path d="M674.2,19.070999999999998L674.2,38.141999999999996"></path><path d="M674.2,19.070999999999998C786.4000000000001,19.070999999999998 786.4000000000001,61.37099237060545 898.6,61.37099237060545L898.6,80.44199237060545C786.4000000000001,80.44199237060545 786.4000000000001,38.141999999999996 674.2,38.141999999999996Z"></path><path d="M898.6,61.37099237060545L898.6,80.44199237060545"></path><title>Registration submission successful → Registration failed (estimate)
39.00</title></g><g class="link" fill="#7bff64" opacity="0.3" id="link-12" style="opacity: 0.3;"><path d="M673.2,104L673.2,109.868"></path><path d="M673.2,104C785.4000000000001,104 785.4000000000001,22.982999999999997 897.6,22.982999999999997L897.6,28.851C785.4000000000001,28.851 785.4000000000001,109.868 673.2,109.868Z"></path><path d="M897.6,22.982999999999997L897.6,28.851"></path><title>Registration submission failed → Successful registration (estimate)
12.00</title></g><g class="link" fill="#7bff64" opacity="0.3" id="link-13" style="opacity: 0.3;"><path d="M674.2,49.1607149629221L674.2,53.0727149629221"></path><path d="M674.2,49.1607149629221C785.9000000000001,49.1607149629221 785.9000000000001,19.070999999999998 897.6,19.070999999999998L897.6,22.982999999999997C785.9000000000001,22.982999999999997 785.9000000000001,53.0727149629221 674.2,53.0727149629221Z"></path><path d="M897.6,19.070999999999998L897.6,22.982999999999997"></path><title>Registration state unknown → Successful registration (estimate)
8.00</title></g><g class="link" fill="#ffa07d" opacity="0.3" id="link-14" style="opacity: 0.3;"><path d="M928.6,61.37099237060545L928.6,62.34899237060545"></path><path d="M928.6,61.37099237060545C992.8,61.37099237060545 992.8,24.45 1057,24.45L1057,25.428C992.8,25.428 992.8,62.34899237060545 928.6,62.34899237060545Z"></path><path d="M1057,24.45L1057,25.428"></path><title>Registration failed (estimate) → Received email
2.00</title></g></g><g><g class="node" transform="translate(0,2.986499936241671e-14)"><rect height="489" width="30" style="fill: rgb(20, 39, 53); stroke: rgb(9, 19, 25);"><title>Tranco 1M
1,000.00</title></rect><text class="node_name" x="36" y="244.5" dy=".35em" text-anchor="start">Tranco 1M</text><text class="node_value" x="-244.5" y="21" transform="rotate(270)" text-anchor="middle" fill="white">1,000</text></g><g class="node" transform="translate(171.4,0)"><rect height="379.464" width="30" style="fill: rgb(157, 142, 102); stroke: rgb(76, 69, 49);"><title>Loaded successfully
776.00</title></rect><text class="node_name" x="36" y="189.732" dy=".35em" text-anchor="start">Loaded successfully</text><text class="node_value" x="-189.732" y="21" transform="rotate(270)" text-anchor="middle" fill="white">776</text></g><g class="node" transform="translate(380.8,0)"><rect height="127.62899999999999" width="30" style="fill: rgb(157, 142, 102); stroke: rgb(76, 69, 49);"><title>Registration form found
261.00</title></rect><text class="node_name" x="36" y="63.814499999999995" dy=".35em" text-anchor="start">Registration form found</text><text class="node_value" x="-63.814499999999995" y="21" transform="rotate(270)" text-anchor="middle" fill="white">261</text></g><g class="node" transform="translate(644.2,0)"><rect height="38.141999999999996" width="30" style="fill: rgb(157, 141, 101); stroke: rgb(76, 69, 49);"><title>Registration submission successful
78.00</title></rect><text class="node_name" x="-6" y="19.070999999999998" dy=".35em" text-anchor="end">Registration submission successful</text><text class="node_value" x="-19.070999999999998" y="21" transform="rotate(270)" text-anchor="middle" fill="white">78</text></g><g class="node" transform="translate(644.2,49.1607149629221)"><rect height="40.586999999999996" width="30" style="fill: rgb(157, 141, 101); stroke: rgb(76, 69, 49);"><title>Registration state unknown
83.00</title></rect><text class="node_name" x="-6" y="20.293499999999998" dy=".35em" text-anchor="end">Registration state unknown</text><text class="node_value" x="-20.293499999999998" y="21" transform="rotate(270)" text-anchor="middle" fill="white">83</text></g><g class="node" transform="translate(643.2,104)"><rect height="48.9" width="30" style="fill: rgb(157, 141, 101); stroke: rgb(76, 69, 49);"><title>Registration submission failed
100.00</title></rect><text class="node_name" x="-6" y="24.45" dy=".35em" text-anchor="end">Registration submission failed</text><text class="node_value" x="-24.45" y="21" transform="rotate(270)" text-anchor="middle" fill="white">100</text></g><g class="node" transform="translate(897.6,0)"><rect height="28.851" width="30" style="fill: rgb(6, 106, 0); stroke: rgb(2, 51, 0);"><title>Successful registration (estimate)
59.00</title></rect><text class="node_name" x="-6" y="14.4255" dy=".35em" text-anchor="end">Successful registration (estimate)</text><text class="node_value" x="-14.4255" y="21" transform="rotate(270)" text-anchor="middle" fill="white">59</text></g><g class="node" transform="translate(1057,0)"><rect height="25.428" width="30" style="fill: rgb(8, 141, 0); stroke: rgb(3, 69, 0);"><title>Received email
52.00</title></rect><text class="node_name" x="-6" y="12.714" dy=".35em" text-anchor="end">Received email</text><text class="node_value" x="-12.714" y="21" transform="rotate(270)" text-anchor="middle" fill="white">52</text></g><g class="node" transform="translate(898.6,61.37099237060545)"><rect height="98.77799999999999" width="30" style="fill: rgb(157, 141, 101); stroke: rgb(76, 69, 49);"><title>Registration failed (estimate)
202.00</title></rect><text class="node_name" x="-6" y="49.388999999999996" dy=".35em" text-anchor="end">Registration failed (estimate)</text><text class="node_value" x="-49.388999999999996" y="21" transform="rotate(270)" text-anchor="middle" fill="white">202</text></g><g class="node" transform="translate(381,379.464)"><rect height="109.536" width="30" style="fill: rgb(98, 98, 98); stroke: rgb(48, 48, 48);"><title>Failed: timeout/bot detection/unsupported language
224.00</title></rect><text class="node_name" x="-6" y="54.768" dy=".35em" text-anchor="end">Failed: timeout/bot detection/unsupported language</text><text class="node_value" x="-54.768" y="21" transform="rotate(270)" text-anchor="middle" fill="white">224</text></g><g class="node" transform="translate(381,127.20099999999996)"><rect height="251.835" width="30" style="fill: rgb(202, 150, 150); stroke: rgb(98, 73, 73);"><title>Registration form not found
515.00</title></rect><text class="node_name" x="-6" y="125.9175" dy=".35em" text-anchor="end">Registration form not found</text><text class="node_value" x="-125.9175" y="21" transform="rotate(270)" text-anchor="middle" fill="white">515</text></g></g></g><defs><style type="text/css"> .bg_overlay {fill: white;background-color: white;}</style></defs></svg>