<?xml version="1.0" standalone="no"?>
<!DOCTYPE svg PUBLIC "-//W3C//DTD SVG 20010904//EN"
 "http://www.w3.org/TR/2001/REC-SVG-20010904/DTD/svg10.dtd">
<svg version="1.0" xmlns="http://www.w3.org/2000/svg"
 width="512.000000pt" height="512.000000pt" viewBox="0 0 512.000000 512.000000"
 preserveAspectRatio="xMidYMid meet">
<metadata>
Created by potrace 1.11, written by Peter Selinger 2001-2013
</metadata>
<g transform="translate(0.000000,512.000000) scale(0.100000,-0.100000)"
fill="#000000" stroke="none">
<path d="M390 5104 c-30 -8 -80 -26 -110 -41 -72 -35 -188 -151 -223 -223 -61
-126 -57 23 -57 -2280 0 -2303 -4 -2154 57 -2280 35 -72 151 -188 223 -223
126 -61 -23 -57 2280 -57 2303 0 2154 -4 2280 57 72 35 188 151 223 223 61
126 57 -23 57 2280 0 2303 4 2154 -57 2280 -35 72 -151 188 -223 223 -127 61
23 57 -2285 56 -1816 0 -2118 -2 -2165 -15z m480 -1905 l0 -501 103 4 c84 3
108 7 131 24 15 11 209 224 429 474 221 250 417 465 436 477 32 22 44 23 194
23 152 0 159 -1 145 -17 -129 -152 -868 -986 -891 -1007 -18 -15 -45 -36 -61
-46 l-28 -18 34 -16 c19 -9 57 -40 85 -69 55 -57 933 -1103 933 -1112 0 -3
-68 -5 -150 -5 -106 0 -161 4 -184 14 -24 10 -156 154 -463 508 -240 275 -443
500 -459 507 -18 9 -73 16 -141 19 l-113 4 0 -526 0 -526 -155 0 -155 0 0
1145 0 1145 155 0 155 0 0 -501z m2180 1 l0 -500 85 0 c54 0 99 6 125 16 33
13 111 97 434 463 402 456 450 507 489 516 12 3 89 4 170 3 l148 -3 -406 -460
c-433 -490 -513 -577 -559 -605 l-28 -18 34 -16 c19 -9 55 -38 80 -64 56 -58
938 -1109 938 -1117 0 -4 -73 -5 -163 -3 -135 2 -168 6 -190 20 -14 10 -217
238 -451 506 -233 269 -437 494 -453 502 -16 8 -74 15 -140 18 l-113 4 0 -526
0 -526 -155 0 -155 0 0 1145 0 1145 155 0 155 0 0 -500z"/>
</g>
</svg>
